<?xml version="1.0" encoding="UTF-8"?>
<svg version="1.1" xmlns="http://www.w3.org/2000/svg" width="71" height="71">
<path d="M0 0 C21.45 0 42.9 0 65 0 C65 20.46 65 40.92 65 62 C43.55 62 22.1 62 0 62 C0 41.54 0 21.08 0 0 Z M5 5 C5 8.63 5 12.26 5 16 C11.6 16 18.2 16 25 16 C25 12.37 25 8.74 25 5 C18.4 5 11.8 5 5 5 Z M5 47 C5 50.63 5 54.26 5 58 C6.98 58 8.96 58 11 58 C11 54.37 11 50.74 11 47 C9.02 47 7.04 47 5 47 Z M16 47 C16 50.63 16 54.26 16 58 C18.97 58 21.94 58 25 58 C25 54.37 25 50.74 25 47 C22.03 47 19.06 47 16 47 Z " fill="#C0BEBF" transform="translate(3,3)"/>
<path d="M0 0 C5.424375 -0.020625 10.84875 -0.04125 16.4375 -0.0625 C18.15122803 -0.071604 19.86495605 -0.08070801 21.63061523 -0.09008789 C22.98160727 -0.09300716 24.33260019 -0.09555569 25.68359375 -0.09765625 C26.39100708 -0.10277222 27.09842041 -0.10788818 27.82727051 -0.11315918 C29.55192617 -0.11347032 31.27646838 -0.06225761 33 0 C34 1 34 1 34.11352539 4.14282227 C34.11327441 5.53402696 34.10771709 6.92523791 34.09765625 8.31640625 C34.09664917 8.96411987 34.09564209 9.6118335 34.09460449 10.2791748 C34.08935843 12.70696779 34.07539725 15.13473561 34.0625 17.5625 C34.041875 22.986875 34.02125 28.41125 34 34 C22.78 34 11.56 34 0 34 C0 22.78 0 11.56 0 0 Z " fill="#E0A204" transform="translate(31,6)"/>
<path d="M0 0 C11.22 0 22.44 0 34 0 C34.020625 3.279375 34.04125 6.55875 34.0625 9.9375 C34.071604 10.97253662 34.08070801 12.00757324 34.09008789 13.07397461 C34.09258545 13.88358643 34.09508301 14.69319824 34.09765625 15.52734375 C34.10289307 16.35999756 34.10812988 17.19265137 34.11352539 18.05053711 C34 20 34 20 33 21 C30.55169574 21.08843793 28.13179401 21.11528752 25.68359375 21.09765625 C24.95253922 21.0962413 24.22148468 21.09482635 23.46827698 21.09336853 C21.12464368 21.08775408 18.78110461 21.07519922 16.4375 21.0625 C14.85221492 21.05748686 13.26692834 21.05292363 11.68164062 21.04882812 C7.78769457 21.03862921 3.89395323 21.01905687 0 21 C0 14.07 0 7.14 0 0 Z " fill="#699CFE" transform="translate(31,42)"/>
<path d="M0 0 C7.59 0 15.18 0 23 0 C23 8.25 23 16.5 23 25 C15.41 25 7.82 25 0 25 C0 16.75 0 8.5 0 0 Z " fill="#B7483C" transform="translate(6,22)"/>
<path d="M0 0 C5.424375 -0.020625 10.84875 -0.04125 16.4375 -0.0625 C18.15122803 -0.071604 19.86495605 -0.08070801 21.63061523 -0.09008789 C22.98160727 -0.09300716 24.33260019 -0.09555569 25.68359375 -0.09765625 C26.39100708 -0.10277222 27.09842041 -0.10788818 27.82727051 -0.11315918 C29.55192617 -0.11347032 31.27646838 -0.06225761 33 0 C34 1 34 1 34.11352539 4.14282227 C34.11327441 5.53402696 34.10771709 6.92523791 34.09765625 8.31640625 C34.09664917 8.96411987 34.09564209 9.6118335 34.09460449 10.2791748 C34.08935843 12.70696779 34.07539725 15.13473561 34.0625 17.5625 C34.041875 22.986875 34.02125 28.41125 34 34 C22.78 34 11.56 34 0 34 C0 22.78 0 11.56 0 0 Z M2 3 C0.77390118 17.63591361 0.77390118 17.63591361 2 32 C11.57 32 21.14 32 31 32 C31 22.43 31 12.86 31 3 C21.43 3 11.86 3 2 3 Z " fill="#B0913D" transform="translate(31,6)"/>
<path d="M0 0 C3.41659491 -0.05816623 6.83306205 -0.09365195 10.25 -0.125 C11.21808594 -0.14175781 12.18617187 -0.15851562 13.18359375 -0.17578125 C14.11816406 -0.18222656 15.05273438 -0.18867188 16.015625 -0.1953125 C16.87446289 -0.20578613 17.73330078 -0.21625977 18.61816406 -0.22705078 C21.17903596 0.01706677 22.79511029 0.71009488 25 2 C23.27427512 3.44163007 21.5442653 4.87813165 19.8125 6.3125 C18.84957031 7.11300781 17.88664062 7.91351563 16.89453125 8.73828125 C11.65466337 12.83259097 7.40850545 14.58795643 1 16 C0.14701624 12.32612505 -0.10789471 8.9552607 -0.0625 5.1875 C-0.05347656 4.21167969 -0.04445312 3.23585938 -0.03515625 2.23046875 C-0.02355469 1.49441406 -0.01195312 0.75835937 0 0 Z " fill="#EFCA52" transform="translate(33,9)"/>
<path d="M0 0 C5.61 0 11.22 0 17 0 C17 7 17 7 15.20703125 8.92578125 C14.41683594 9.38339844 13.62664063 9.84101562 12.8125 10.3125 C11.64654297 11.01826172 11.64654297 11.01826172 10.45703125 11.73828125 C6.87705169 13.57664913 4.06364776 15 0 15 C0 10.05 0 5.1 0 0 Z " fill="#E47C70" transform="translate(9,24)"/>
<path d="M0 0 C0.66 0.33 1.32 0.66 2 1 C2 5.29 2 9.58 2 14 C-8.56 14 -19.12 14 -30 14 C-29.67 13.01 -29.34 12.02 -29 11 C-28.10796875 10.95101562 -27.2159375 10.90203125 -26.296875 10.8515625 C-25.12640625 10.77679688 -23.9559375 10.70203125 -22.75 10.625 C-21.00976562 10.52058594 -21.00976562 10.52058594 -19.234375 10.4140625 C-16.24097347 10.03084926 -14.59195095 9.41066357 -12 8 C-11.01 8 -10.02 8 -9 8 C-8.67 7.01 -8.34 6.02 -8 5 C-5.39757586 3.35179805 -4.13751221 3 -1 3 C-0.67 2.01 -0.34 1.02 0 0 Z " fill="#4B76C4" transform="translate(62,48)"/>
<path d="M0 0 C2.31 0 4.62 0 7 0 C7 1.65 7 3.3 7 5 C6.40832031 5.29132812 5.81664063 5.58265625 5.20703125 5.8828125 C0.6759496 8.2333573 -2.46769694 10.20712638 -5.55078125 14.3828125 C-8.74113347 17.942936 -13.02914888 20.38866062 -17 23 C-17.99 23.66 -18.98 24.32 -20 25 C-20.95261487 20.23692563 -21.08333357 15.8333472 -21 11 C-20.34 12.32 -19.68 13.64 -19 15 C-10.46328557 12.10361475 -3.7671854 7.92128722 3 2 C2.01 1.34 1.02 0.68 0 0 Z " fill="#EDBA29" transform="translate(54,9)"/>
<path d="M0 0 C0.33 0 0.66 0 1 0 C1 10.89 1 21.78 1 33 C11.89 33 22.78 33 34 33 C34 33.66 34 34.32 34 35 C23.11 35 12.22 35 1 35 C1 41.6 1 48.2 1 55 C0.67 55 0.34 55 0 55 C-1.66140384 36.7542257 -1.66140384 18.2457743 0 0 Z " fill="#B5AFA9" transform="translate(30,7)"/>
<path d="M0 0 C11.22 0 22.44 0 34 0 C34.020625 3.279375 34.04125 6.55875 34.0625 9.9375 C34.071604 10.97253662 34.08070801 12.00757324 34.09008789 13.07397461 C34.09258545 13.88358643 34.09508301 14.69319824 34.09765625 15.52734375 C34.10289307 16.35999756 34.10812988 17.19265137 34.11352539 18.05053711 C34 20 34 20 33 21 C30.55169574 21.08843793 28.13179401 21.11528752 25.68359375 21.09765625 C24.95253922 21.0962413 24.22148468 21.09482635 23.46827698 21.09336853 C21.12464368 21.08775408 18.78110461 21.07519922 16.4375 21.0625 C14.85221492 21.05748686 13.26692834 21.05292363 11.68164062 21.04882812 C7.78769457 21.03862921 3.89395323 21.01905687 0 21 C0 14.07 0 7.14 0 0 Z M2 2 C2 5.3 2 8.6 2 12 C1.67 12 1.34 12 1 12 C1 14.64 1 17.28 1 20 C11.56 20 22.12 20 33 20 C33 13.73 33 7.46 33 1 C22.59201975 0.90789398 12.37461857 1.16526058 2 2 Z " fill="#86A3C8" transform="translate(31,42)"/>
<path d="M0 0 C5.28 0 10.56 0 16 0 C16 1.98 16 3.96 16 6 C15.34 6 14.68 6 14 6 C13.67 6.66 13.34 7.32 13 8 C9.5 9.5 9.5 9.5 6 11 C5.67 11.66 5.34 12.32 5 13 C-1.25343955 16.55309066 -7.88400688 16.95874787 -15 17 C-16 16 -16 16 -16.0625 13.4375 C-16.041875 12.633125 -16.02125 11.82875 -16 11 C-14 13 -14 13 -14 16 C-10.30955516 14.46231465 -6.68970108 12.87348267 -3.125 11.0625 C-0.16944149 9.57031744 2.80291607 8.13040884 5.8125 6.75 C6.54082031 6.41484375 7.26914062 6.0796875 8.01953125 5.734375 C10 5 10 5 13 5 C13 4.01 13 3.02 13 2 C8.71 1.67 4.42 1.34 0 1 C0 0.67 0 0.34 0 0 Z " fill="#5D90F4" transform="translate(48,43)"/>
<path d="M0 0 C0.33 0 0.66 0 1 0 C1.34292866 9.94493116 1.34292866 9.94493116 -1 14 C-5.94136665 17.40505084 -10.88653214 19.80440367 -17 19 C-17 17.35 -17 15.7 -17 14 C-15.824375 13.608125 -14.64875 13.21625 -13.4375 12.8125 C-10.3110876 11.65744888 -7.80178135 10.29613587 -5.125 8.3125 C-2 6 -2 6 0 6 C0 4.02 0 2.04 0 0 Z " fill="#D34C47" transform="translate(26,25)"/>
<path d="M0 0 C12.66970387 -0.18451025 12.66970387 -0.18451025 18 1 C13.63132785 6.31838349 6.74554853 9.12960664 0 10 C0 6.7 0 3.4 0 0 Z " fill="#F1D770" transform="translate(34,9)"/>
<path d="M0 0 C2.4377963 -0.05397335 4.87439685 -0.09365616 7.3125 -0.125 C8.00279297 -0.14175781 8.69308594 -0.15851562 9.40429688 -0.17578125 C13.17135396 -0.21217794 14.78431704 -0.14378864 18 2 C14.99162576 4.56268917 12.83061349 5.27035934 9 6 C7.453125 6.804375 7.453125 6.804375 5.875 7.625 C3 9 3 9 0 8 C0 5.36 0 2.72 0 0 Z " fill="#8FB6F9" transform="translate(33,44)"/>
<path d="M0 0 C0.66 0.33 1.32 0.66 2 1 C2 5.29 2 9.58 2 14 C-4.14252407 14.07583363 -9.95210034 14.07518216 -16 13 C-15.67 12.34 -15.34 11.68 -15 11 C-12.6015625 10.62109375 -12.6015625 10.62109375 -9.625 10.4375 C-6.46357425 10.23313343 -4.01866352 10.00622117 -1 9 C-0.67 6.03 -0.34 3.06 0 0 Z " fill="#355CA8" transform="translate(62,48)"/>
<path d="M0 0 C2.64 0 5.28 0 8 0 C8 0.66 8 1.32 8 2 C6.88625 2.433125 5.7725 2.86625 4.625 3.3125 C0.82487666 4.69911119 0.82487666 4.69911119 -1 8 C-1.99 8 -2.98 8 -4 8 C-4 8.66 -4 9.32 -4 10 C-8.95 11.485 -8.95 11.485 -14 13 C-14 11.68 -14 10.36 -14 9 C-9.41179645 6.60109154 -4.96262183 4.53604961 0 3 C0.66 2.67 1.32 2.34 2 2 C1.34 1.34 0.68 0.68 0 0 Z " fill="#80ADFB" transform="translate(48,44)"/>
<path d="M0 0 C9.57 0 19.14 0 29 0 C29 4.62 29 9.24 29 14 C26.64666204 9.29332409 26.82897962 7.1306114 27 2 C25.58460937 2.01740234 25.58460937 2.01740234 24.140625 2.03515625 C16.03074116 2.09215343 8.07707803 1.84230236 0 1 C0 0.67 0 0.34 0 0 Z " fill="#B79022" transform="translate(35,7)"/>
<path d="M0 0 C0.62132813 0.19078125 1.24265625 0.3815625 1.8828125 0.578125 C0.15708762 2.01975507 -1.5729222 3.45625665 -3.3046875 4.890625 C-4.74908203 6.09138672 -4.74908203 6.09138672 -6.22265625 7.31640625 C-8.79822892 9.32889826 -11.18532804 11.13436899 -14.1171875 12.578125 C-15.1071875 12.248125 -16.0971875 11.918125 -17.1171875 11.578125 C-13.75694211 7.1307414 -11.29234677 4.89043021 -6.1171875 2.578125 C-5.4159375 2.000625 -4.7146875 1.423125 -3.9921875 0.828125 C-2.1171875 -0.421875 -2.1171875 -0.421875 0 0 Z " fill="#F0C23A" transform="translate(56.1171875,10.421875)"/>
<path d="M0 0 C0.99 0 1.98 0 3 0 C3 0.99 3 1.98 3 3 C1.20703125 4.53515625 1.20703125 4.53515625 -1.1875 6.0625 C-1.96480469 6.56910156 -2.74210937 7.07570313 -3.54296875 7.59765625 C-7.08723221 9.62053476 -9.88535479 11 -14 11 C-13.67 9.68 -13.34 8.36 -13 7 C-13 7.66 -13 8.32 -13 9 C-9.92937598 8.30459318 -9.92937598 8.30459318 -8.625 6.0625 C-6.65217974 3.55853583 -4.95639268 3.06126917 -2 2 C-1.34 1.34 -0.68 0.68 0 0 Z " fill="#E07570" transform="translate(23,28)"/>
<path d="M0 0 C3.96 0 7.92 0 12 0 C8.625 4.5 8.625 4.5 4.3125 5.75 C3.50425781 5.99234375 2.69601563 6.2346875 1.86328125 6.484375 C0.94095703 6.73960938 0.94095703 6.73960938 0 7 C0 4.69 0 2.38 0 0 Z " fill="#F0ABA5" transform="translate(10,25)"/>
<path d="M0 0 C0.33 0 0.66 0 1 0 C1.42412175 3.07488268 1.67747405 5.03405062 1 8 C-3.36867064 13.35890266 -9.37984855 15.11118337 -16 16 C-16 15.34 -16 14.68 -16 14 C-14.989375 13.608125 -13.97875 13.21625 -12.9375 12.8125 C-10.07236221 11.60122224 -7.68741408 10.16117596 -5.1875 8.3125 C-2 6 -2 6 0 6 C0 4.02 0 2.04 0 0 Z " fill="#D65A54" transform="translate(26,25)"/>
<path d="M0 0 C0.33 0 0.66 0 1 0 C1 3.63 1 7.26 1 11 C-5.6 11 -12.2 11 -19 11 C-19 10.67 -19 10.34 -19 10 C-12.97403427 8.9287172 -7.11090483 8.90054585 -1 9 C-0.67 6.03 -0.34 3.06 0 0 Z " fill="#79171B" transform="translate(27,35)"/>
<path d="M0 0 C1.32 0 2.64 0 4 0 C4 0.99 4 1.98 4 3 C1.5625 4.625 1.5625 4.625 -1 6 C-1.33 6.33 -1.66 6.66 -2 7 C-4.027754 7.25749257 -6.05628209 7.51207223 -8.08984375 7.71875 C-10.08088347 7.91037786 -10.08088347 7.91037786 -12 9 C-11 6 -11 6 -9.00390625 4.90234375 C-8.19824219 4.58394531 -7.39257812 4.26554687 -6.5625 3.9375 C-3.75066945 2.81367045 -2.1627793 2.1627793 0 0 Z " fill="#E78D88" transform="translate(22,25)"/>
<path d="M0 0 C3.63 0 7.26 0 11 0 C8.24829249 2.9555377 5.58029701 5.11563315 2 7 C1.34 7 0.68 7 0 7 C0 4.69 0 2.38 0 0 Z " fill="#F5E48E" transform="translate(34,10)"/>
<path d="M0 0 C3.63 0 7.26 0 11 0 C7.53258866 2.95749791 4.13126473 5.07848152 0 7 C0 4.69 0 2.38 0 0 Z " fill="#9EBFFF" transform="translate(34,45)"/>
<path d="M0 0 C5.28 0 10.56 0 16 0 C16 1.98 16 3.96 16 6 C15.01 5.34 14.02 4.68 13 4 C13 3.34 13 2.68 13 2 C8.71 1.67 4.42 1.34 0 1 C0 0.67 0 0.34 0 0 Z " fill="#5F8FD0" transform="translate(48,43)"/>
<path d="M0 0 C0.66 0.33 1.32 0.66 2 1 C-10 11.5 -10 11.5 -15 14 C-15 12.68 -15 11.36 -15 10 C-14.41992188 9.69707031 -13.83984375 9.39414062 -13.2421875 9.08203125 C-8.33804164 6.45192002 -4.14176825 3.71697151 0 0 Z " fill="#ECB317" transform="translate(49,20)"/>
<path d="M0 0 C0.66 0.33 1.32 0.66 2 1 C0.2633385 2.53604715 -1.48982755 4.05345163 -3.25 5.5625 C-4.22453125 6.40941406 -5.1990625 7.25632812 -6.203125 8.12890625 C-9 10 -9 10 -11.359375 9.77734375 C-11.90078125 9.52082031 -12.4421875 9.26429687 -13 9 C-10.442172 6.01586734 -7.49426066 4.71147461 -4 3 C-2.64136599 2.03465478 -1.29656863 1.04722851 0 0 Z " fill="#F0C747" transform="translate(54,10)"/>
<path d="M0 0 C0.66 0.33 1.32 0.66 2 1 C-8.4695122 7.46646341 -8.4695122 7.46646341 -15 7 C-12.0356239 5.02374927 -9.21212254 3.70113094 -5.9375 2.3125 C-4.87402344 1.85488281 -3.81054688 1.39726563 -2.71484375 0.92578125 C-1.81894531 0.62027344 -0.92304688 0.31476562 0 0 Z " fill="#CE3E39" transform="translate(24,37)"/>
<path d="M0 0 C0.33 0 0.66 0 1 0 C1 3.3 1 6.6 1 10 C1.763125 9.67 2.52625 9.34 3.3125 9 C6 8 6 8 9 8 C6.36 9.98 3.72 11.96 1 14 C-0.04976964 10.85069107 -0.10131595 8.61185544 -0.0625 5.3125 C-0.05347656 4.31863281 -0.04445312 3.32476562 -0.03515625 2.30078125 C-0.02355469 1.54152344 -0.01195312 0.78226563 0 0 Z " fill="#EBCC5F" transform="translate(33,9)"/>
<path d="M0 0 C-3.74525799 3.74525799 -7.98270909 3.68909949 -13 4 C-8.92504479 -0.07495521 -5.70163125 -0.21929351 0 0 Z " fill="#5488F0" transform="translate(53,55)"/>
<path d="M0 0 C0.33 1.32 0.66 2.64 1 4 C-2.4352048 6.29013653 -3.985331 6.17842973 -8 6 C-5.60490662 3.10067643 -3.68754757 2.49831724 0 2 C0 1.34 0 0.68 0 0 Z " fill="#4E80E5" transform="translate(61,49)"/>
<path d="M0 0 C0.33 0 0.66 0 1 0 C1 2.64 1 5.28 1 8 C0.01 8 -0.98 8 -2 8 C-3.010625 8.515625 -4.02125 9.03125 -5.0625 9.5625 C-6.031875 10.036875 -7.00125 10.51125 -8 11 C-8.66 10.67 -9.32 10.34 -10 10 C-8.71186658 9.16121545 -7.41936744 8.32913217 -6.125 7.5 C-5.40570313 7.0359375 -4.68640625 6.571875 -3.9453125 6.09375 C-2 5 -2 5 0 5 C0 3.35 0 1.7 0 0 Z " fill="#E7AF19" transform="translate(61,9)"/>
<path d="M0 0 C0.33 0.66 0.66 1.32 1 2 C-0.625 4 -0.625 4 -3 6 C-6.25 6.25 -6.25 6.25 -9 6 C-6.11912454 3.59927045 -3.43595166 1.52708963 0 0 Z " fill="#416EC9" transform="translate(61,53)"/>
<path d="M0 0 C0.99 0.33 1.98 0.66 3 1 C0.68118495 3.67901932 -1.31814468 4.66204403 -4.6875 5.6875 C-5.89986328 6.06455078 -5.89986328 6.06455078 -7.13671875 6.44921875 C-8.05904297 6.72185547 -8.05904297 6.72185547 -9 7 C-9 6.34 -9 5.68 -9 5 C-8.071875 4.54625 -7.14375 4.0925 -6.1875 3.625 C-2.96078611 2.0578367 -2.96078611 2.0578367 0 0 Z " fill="#EC9D98" transform="translate(19,25)"/>
<path d="M0 0 C-7.28571429 4.57142857 -7.28571429 4.57142857 -12 4 C-9.8923766 -0.2152468 -4.26296995 -1.87570678 0 0 Z " fill="#75A5FF" transform="translate(60,46)"/>
<path d="M0 0 C-1.32 0.33 -2.64 0.66 -4 1 C-4 1.66 -4 2.32 -4 3 C-5.98 3.33 -7.96 3.66 -10 4 C-7.56830601 0.23087432 -7.56830601 0.23087432 -5 -0.8125 C-3 -1 -3 -1 0 0 Z " fill="#76A6FF" transform="translate(48,51)"/>
<path d="M0 0 C0.33 0.66 0.66 1.32 1 2 C1.5775 1.649375 2.155 1.29875 2.75 0.9375 C5.35801776 -0.14917407 6.39417629 0.06934867 9 1 C6.23776722 3.76223278 3.79293383 3.57856291 0 4 C0 2.68 0 1.36 0 0 Z " fill="#DC6A64" transform="translate(9,35)"/>
<path d="M0 0 C0.66 1.32 1.32 2.64 2 4 C2.99 4 3.98 4 5 4 C4.67 4.99 4.34 5.98 4 7 C1.9375 7.6875 1.9375 7.6875 0 8 C0 5.36 0 2.72 0 0 Z " fill="#E7BB37" transform="translate(33,20)"/>
</svg>
